# xmcd
#
# Track frame offsets:
# 150
# 11503
# 22607
# 34356
# 45933
# 58439
# 69176
# 80825
# 91199
# 101707
#
# Disc length: 1458 seconds
#
#
# Revision: 0
# Processed by: cddbd v1.5.1PL2 Copyright (c) Steve Scherf et al.
# Submitted via: FreeRIP 2.945 
#
DISCID=7405b00a
DTITLE=Merle Haggard - Sing Me Back Home Greatest Hits CD - 3
DYEAR=2004
DGENRE=Country
TTITLE0=(My Friends Are Gonna Be) Strangers
TTITLE1=Please Mr. D.J.
TTITLE2=Sam Hill
TTITLE3=You Don't Have Far To Go
TTITLE4=Just Between The Two Of Us
TTITLE5=Slowly But Surely (With Bonnie Owens)
TTITLE6=Sing A Sad Song
TTITLE7=You Don't Even Try
TTITLE8=Singin' My Heart Out
TTITLE9=Skid Row
EXTD=
EXTT0=
EXTT1=
EXTT2=
EXTT3=
EXTT4=
EXTT5=
EXTT6=
EXTT7=
EXTT8=
EXTT9=
PLAYORDER=
